<svg xmlns="http://www.w3.org/2000/svg" viewBox="0 0 512 512" width="512" height="512">
  <defs>
    <clipPath id="tile"><rect x="16" y="16" width="480" height="480" rx="108"/></clipPath>
    <pattern id="argyle" width="120" height="160" patternUnits="userSpaceOnUse">
      <rect width="120" height="160" fill="#0E0820"/>
      <polygon points="60,0 120,80 60,160 0,80" fill="#2E1F52"/>
      <polygon points="0,0 60,80 0,160" fill="#1F1640"/>
      <polygon points="120,0 60,80 120,160" fill="#1F1640"/>
      <g stroke="#8B5CF6" stroke-width="2" opacity="0.30" stroke-dasharray="6 7">
        <path d="M60 -80 L200 80 M60 -80 L-80 80 M60 80 L200 240 M60 80 L-80 240 M60 240 L200 400 M60 240 L-80 400"/>
      </g>
    </pattern>
  </defs>
  <g clip-path="url(#tile)"><rect x="16" y="16" width="480" height="480" fill="url(#argyle)"/></g>
  <rect x="16" y="16" width="480" height="480" rx="108" fill="none" stroke="#2BD3D3" stroke-width="6"/>
  <g><g fill="none" stroke="#8B5CF6" stroke-width="22" stroke-linecap="round"><path d="M196 196 l-40 -40 M316 196 l40 -40"/><rect x="186" y="196" width="140" height="96" rx="20" fill="#8B5CF6" stroke="none"/><path d="M256 292 v64"/></g></g>
</svg>
